<?xml version="1.0" encoding="utf-8"?>
<!-- Generator: Adobe Illustrator 27.7.0, SVG Export Plug-In . SVG Version: 6.00 Build 0)  -->
<svg version="1.1" id="图层_1" xmlns="http://www.w3.org/2000/svg" xmlns:xlink="http://www.w3.org/1999/xlink" x="0px" y="0px"
	 viewBox="0 0 328.4 110" style="enable-background:new 0 0 328.4 110;" xml:space="preserve">
<style type="text/css">
	.st0{fill:#38D1C4;}
	.st1{fill:#FFFFFF;}
</style>
<g>
	<path class="st0" d="M8,101.5V9.2c0-4.7,3.8-8.5,8.5-8.5h0c4.7,0,8.5,3.8,8.5,8.5v92.3c0,4.7-3.8,8.5-8.5,8.5h0
		C11.8,110,8,106.2,8,101.5z"/>
	<path class="st1" d="M115,45.3C110.4,20.7,88.9,1.9,63,1.4C32.7,0.8,8,25.7,8,56.1v45.4c0,4.7,3.8,8.5,8.5,8.5s8.5-3.8,8.5-8.5V56
		c0-20.8,16.9-38,37.7-37.6c17.7,0.4,32.4,13.2,35.5,30c0.8,4,4.3,6.9,8.4,6.9h0C112.2,55.4,116,50.8,115,45.3z"/>
</g>
<path class="st1" d="M145.6,50.7h5.8c0.8,0,1.4-0.6,1.4-1.4V36.6L165.3,15c0.5-0.9-0.1-2.1-1.2-2.1h-5.9c-0.5,0-1,0.3-1.2,0.7
	l-8.4,15.2l-8.3-15.2c-0.2-0.5-0.7-0.7-1.2-0.7h-6.1c-1.1,0-1.8,1.2-1.2,2.1l12.5,21.6v12.7C144.2,50.1,144.8,50.7,145.6,50.7z"/>
<path class="st1" d="M190.7,50.7h6.2c1,0,1.7-1,1.3-1.9l-12.3-35c-0.2-0.6-0.7-0.9-1.3-0.9h-8.5c-0.6,0-1.1,0.4-1.3,0.9l-12.4,35
	c-0.3,0.9,0.4,1.9,1.3,1.9h5.8c0.6,0,1.2-0.4,1.3-1l1.8-5.5h14.9l1.8,5.5C189.5,50.3,190.1,50.7,190.7,50.7z M175.1,36.6l4.9-14.8
	l4.9,14.8H175.1z"/>
<path class="st1" d="M227.8,36.9L213,13.5c-0.3-0.4-0.7-0.7-1.2-0.7h-7.1c-0.8,0-1.4,0.6-1.4,1.4v35c0,0.8,0.6,1.4,1.4,1.4h5.4
	c0.8,0,1.4-0.6,1.4-1.4V26.7L226.3,50c0.3,0.4,0.7,0.7,1.2,0.7h7.1c0.8,0,1.4-0.6,1.4-1.4v-35c0-0.8-0.6-1.4-1.4-1.4h-5.4
	c-0.8,0-1.4,0.6-1.4,1.4V36.9z"/>
<path class="st1" d="M260.2,51.5c5.6,0,10.2-1.9,13.8-5.6c3.6-3.7,5.4-8.5,5.4-14.2v-2.2h-18.2c-0.8,0-1.4,0.6-1.4,1.4v4.6
	c0,0.8,0.6,1.4,1.4,1.4h8.6c-0.7,2.1-1.9,3.7-3.6,4.8c-1.7,1.2-3.7,1.7-6.2,1.7c-3.3,0-6-1.1-8.2-3.3c-2.2-2.2-3.2-4.9-3.2-8.3
	c0-3.5,1.1-6.3,3.3-8.5c2.2-2.2,5-3.3,8.3-3.3c3.3,0,6.3,1.4,8.8,4.1c0.5,0.6,1.4,0.6,1.9,0.1l4.2-3.6c0.6-0.5,0.7-1.4,0.2-2
	c-3.6-4.4-8.6-6.7-15.1-6.7c-6,0-10.9,1.9-14.7,5.7c-3.8,3.8-5.7,8.5-5.7,14c0,5.6,1.9,10.2,5.7,14
	C249.4,49.6,254.2,51.5,260.2,51.5z"/>
<path class="st1" d="M311.7,48.3l-9.9-10.8c3.2-0.6,5.7-2.1,7.5-4.3c1.9-2.2,2.8-4.8,2.8-7.8c0-3.8-1.2-6.8-3.5-9.1
	c-2.4-2.3-5.5-3.5-9.5-3.5H283v36.4c0,0.8,0.6,1.4,1.4,1.4h5.7c0.8,0,1.4-0.6,1.4-1.4V37.8l10.7,12.4c0.3,0.3,0.7,0.5,1.1,0.5h7.3
	C311.9,50.7,312.5,49.2,311.7,48.3z M291.5,30.8V20.7h6.3c1.8,0,3.2,0.5,4.2,1.4s1.5,2.2,1.5,3.7c0,1.5-0.5,2.7-1.6,3.6
	c-1.1,0.9-2.5,1.4-4.4,1.4H291.5z"/>
<g>
	<path class="st1" d="M162.2,81.4c-0.4-0.7-1.1-1.3-1.9-1.9c-0.8-0.6-1.5-1.1-2.1-1.4c-0.6-0.3-1.5-0.7-2.7-1.1
		c-1.2-0.4-2.1-0.6-2.6-0.7c-0.6-0.1-1.5-0.3-2.7-0.6c-1.1-0.3-2-0.5-2.6-0.6c-0.6-0.1-1.3-0.4-2.1-0.7c-0.8-0.3-1.5-0.6-1.9-0.9
		c-0.4-0.3-0.8-0.7-1.1-1.2c-0.3-0.5-0.5-1.1-0.5-1.7c0-1.2,0.5-2.2,1.6-2.9c1-0.7,2.4-1,4.2-1c3.7,0,5.8,1.4,6.3,4.3
		c0.1,0.7,0.7,1.2,1.4,1.2h5.8c0.9,0,1.6-0.8,1.4-1.6c-0.5-3-1.9-5.5-4.1-7.5c-2.6-2.3-6.1-3.4-10.6-3.4c-4.4,0-7.9,1.1-10.5,3.2
		c-2.5,2.2-3.8,4.9-3.8,8.3c0,1.3,0.2,2.4,0.5,3.5c0.3,1.1,0.7,1.9,1.1,2.7c0.4,0.7,1,1.4,1.8,2c0.8,0.6,1.5,1.1,2.1,1.5
		c0.6,0.4,1.5,0.7,2.6,1.1c1.1,0.4,2,0.7,2.6,0.8c0.6,0.1,1.5,0.4,2.7,0.7c1.2,0.3,2,0.5,2.6,0.6c0.5,0.1,1.2,0.3,2.1,0.6
		c0.9,0.3,1.5,0.6,1.9,0.8c0.4,0.3,0.7,0.6,1.1,1.1c0.3,0.4,0.5,0.9,0.5,1.4c0,1.3-0.5,2.3-1.7,3.1c-1.1,0.8-2.7,1.1-4.9,1.1
		c-2.4,0-4.1-0.5-5.2-1.6c-0.8-0.8-1.4-1.8-1.6-3c-0.1-0.7-0.7-1.1-1.4-1.1h-5.8c-0.9,0-1.5,0.8-1.4,1.6c0.5,3.2,1.9,5.7,4.1,7.6
		c2.6,2.2,6.3,3.3,11,3.3c4.8,0,8.6-1.1,11.3-3.3s4-5.1,4-8.7c0-1.2-0.2-2.3-0.5-3.2C163,83,162.7,82.1,162.2,81.4z"/>
	<path class="st1" d="M166.1,68.3h9.9V97c0,0.8,0.6,1.4,1.4,1.4h5.8c0.8,0,1.4-0.6,1.4-1.4V68.3h9.9c0.8,0,1.4-0.6,1.4-1.4v-5
		c0-0.8-0.6-1.4-1.4-1.4h-28.4c-0.8,0-1.4,0.6-1.4,1.4v5C164.7,67.7,165.3,68.3,166.1,68.3z"/>
	<path class="st1" d="M223,82.2c0,2.9-0.7,5.1-2,6.6c-1.3,1.5-3.2,2.3-5.7,2.3c-2.5,0-4.4-0.8-5.8-2.3c-1.4-1.5-2-3.7-2-6.6V61.9
		c0-0.8-0.6-1.4-1.4-1.4h-5.8c-0.8,0-1.4,0.6-1.4,1.4v21.5c0,4.8,1.4,8.6,4.3,11.5s6.9,4.3,12.1,4.3c5.1,0,9.1-1.4,12-4.3
		c2.8-2.8,4.3-6.7,4.3-11.5V61.9c0-0.8-0.6-1.4-1.4-1.4h-5.8c-0.8,0-1.4,0.6-1.4,1.4V82.2z"/>
	<path class="st1" d="M251.5,60.4h-14.1c-0.8,0-1.4,0.6-1.4,1.4V97c0,0.8,0.6,1.4,1.4,1.4h13.7c5.8,0,10.6-1.8,14.3-5.5
		s5.5-8.2,5.5-13.7c0-5.4-1.8-9.8-5.4-13.4C261.9,62.2,257.3,60.4,251.5,60.4z M259.1,87.4c-2.1,2.1-4.7,3.2-7.8,3.2h-6.8V68.3h6.5
		c3.2,0,5.9,1,8,3.1c2.1,2.1,3.2,4.7,3.2,7.9C262.2,82.6,261.2,85.3,259.1,87.4z"/>
	<path class="st1" d="M276.1,98.4h5.8c0.8,0,1.4-0.6,1.4-1.4V61.9c0-0.8-0.6-1.4-1.4-1.4h-5.8c-0.8,0-1.4,0.6-1.4,1.4V97
		C274.7,97.8,275.3,98.4,276.1,98.4z"/>
	<path class="st1" d="M321.5,65.3c-3.9-3.8-8.6-5.7-14.3-5.7c-5.6,0-10.3,1.9-14.3,5.7c-3.9,3.8-5.9,8.5-5.9,14.1
		c0,5.6,2,10.3,5.9,14.1c3.9,3.8,8.7,5.7,14.3,5.7c5.7,0,10.5-1.9,14.3-5.7c3.9-3.8,5.8-8.5,5.8-14.1
		C327.3,73.8,325.3,69.1,321.5,65.3z M315.2,87.9c-2.2,2.3-4.9,3.4-8.1,3.4s-5.9-1.1-8.1-3.4c-2.2-2.3-3.3-5-3.3-8.4
		c0-3.3,1.1-6.1,3.3-8.4c2.2-2.3,4.9-3.4,8.1-3.4s5.9,1.1,8.1,3.4c2.2,2.3,3.3,5.1,3.3,8.3C318.5,82.8,317.4,85.6,315.2,87.9z"/>
</g>
</svg>
