<?xml version="1.0" encoding="utf-8"?>
<!-- Generator: Adobe Illustrator 27.7.0, SVG Export Plug-In . SVG Version: 6.00 Build 0)  -->
<svg version="1.1" id="www.rw" xmlns="http://www.w3.org/2000/svg" xmlns:xlink="http://www.w3.org/1999/xlink" x="0px" y="0px"
	 viewBox="0 0 430.7 202.1" style="enable-background:new 0 0 430.7 202.1;" xml:space="preserve">
<style type="text/css">
	.st0{fill:#E51F1A;}
	.st1{fill:#FFFFFF;}
</style>
<g>
	<g>
		<path class="st0" d="M32,98.3V56.7c0-0.7,0.5-1.2,1.2-1.2h14c0.7,0,1.2,0.5,1.2,1.2v13.1c0,0.9,1,1.5,1.8,1l20.1-11.6
			c0.4-0.2,0.8-0.2,1.2,0l21.5,12.4c0.8,0.5,1.8-0.1,1.8-1v-14c0-0.7,0.5-1.2,1.2-1.2h12.6c0.7,0,1.2,0.5,1.2,1.2v41.6
			c0,0.9-1,1.5-1.8,1l-36.5-21c-0.4-0.2-0.8-0.2-1.2,0l-36.4,21C33,99.8,32,99.2,32,98.3z"/>
		<path class="st0" d="M32,109.5V152c0,0.7,0.5,1.2,1.2,1.2h27.5c0.7,0,1.2-0.5,1.2-1.2v-12.6c0-0.7-0.5-1.2-1.2-1.2H48.2
			c-0.7,0-1.2-0.5-1.2-1.2v-12.6c0-0.7,0.5-1.2,1.2-1.2h43.9c0.7,0,1.2,0.5,1.2,1.2v3.8c0,0.4-0.2,0.8-0.6,1l-20,11.6
			c-0.8,0.5-0.8,1.6,0,2.1l12.6,7.3c0.4,0.2,0.8,0.2,1.2,0l22.7-13.1c0.4-0.2,0.6-0.6,0.6-1v-26.6c0-0.7-0.5-1.2-1.2-1.2H33.2
			C32.5,108.3,32,108.8,32,109.5z"/>
	</g>
	<g>
		<path class="st1" d="M180.7,107.3l-8.9-32.5c-0.1-0.5-0.6-0.9-1.2-0.9h-10.7c-0.6,0-1,0.4-1.2,0.9l-8.9,32
			c-0.3,1.2-2.1,1.2-2.4-0.1l-6.8-31.9c-0.1-0.6-0.6-1-1.2-1h-12.7c-0.8,0-1.4,0.7-1.2,1.5l13.6,55.7c0.1,0.6,0.6,0.9,1.2,0.9h14.6
			c0.6,0,1-0.4,1.2-0.9l7.6-27.4c0.3-1.2,2-1.2,2.4,0l7.8,27.4c0.2,0.5,0.6,0.9,1.2,0.9h14.7c0.6,0,1.1-0.4,1.2-0.9l13.6-55.7
			c0.2-0.8-0.4-1.5-1.2-1.5h-11.9c-0.6,0-1.1,0.4-1.2,1l-7.1,32.3C182.8,108.5,181,108.5,180.7,107.3z"/>
		<path class="st1" d="M226.5,109h23.9c0.7,0,1.2-0.6,1.2-1.2V97.3c0-0.7-0.6-1.2-1.2-1.2h-23.9c-0.7,0-1.2-0.6-1.2-1.2v-6.4
			c0-0.7,0.6-1.2,1.2-1.2h26c0.7,0,1.2-0.6,1.2-1.2V75.1c0-0.7-0.6-1.2-1.2-1.2H212c-0.7,0-1.2,0.6-1.2,1.2v55.7
			c0,0.7,0.6,1.2,1.2,1.2h40.6c0.7,0,1.2-0.6,1.2-1.2V120c0-0.7-0.6-1.2-1.2-1.2h-26.1c-0.7,0-1.2-0.6-1.2-1.2v-7.3
			C225.3,109.5,225.8,109,226.5,109z"/>
		<path class="st1" d="M267.2,118.4c-3.8,0-6.8,3-6.8,6.8v0.1c0,3.8,3,6.8,6.8,6.8s6.8-3,6.8-6.8v-0.1
			C274,121.4,270.9,118.4,267.2,118.4z"/>
		<path class="st1" d="M381.7,74.6l-14.5,32.8c-0.4,1-1.8,1-2.3,0l-14.5-32.8c-0.2-0.4-0.6-0.7-1.1-0.7h-14.7
			c-0.7,0-1.2,0.6-1.2,1.2v55.7c0,0.7,0.6,1.2,1.2,1.2H346c0.7,0,1.2-0.6,1.2-1.2v-23.6c0-1.3,1.8-1.7,2.4-0.5l11.1,24.6
			c0.2,0.4,0.6,0.7,1.1,0.7h7.9c0.5,0,0.9-0.3,1.1-0.7l11.2-24.8c0.5-1.2,2.4-0.8,2.4,0.5v23.8c0,0.7,0.6,1.2,1.2,1.2h11.8
			c0.7,0,1.2-0.6,1.2-1.2V75.1c0-0.7-0.6-1.2-1.2-1.2h-14.7C382.3,73.9,381.9,74.2,381.7,74.6z"/>
		<g>
			<path class="st1" d="M291.2,113.3c-4.8-6-4.8-14.6,0-20.6c6-7.5,16.9-8.3,23.9-2.2c0.5,0.4,1.2,0.4,1.7-0.1l8.2-8.3
				c0.5-0.5,0.5-1.3,0-1.8c-12.6-11.6-32.4-10.7-43.9,2.5c-9.9,11.4-9.9,28.8,0,40.2c11.5,13.2,31.4,14,43.9,2.4
				c0.5-0.5,0.5-1.3,0-1.8l-8.3-8.2c-0.5-0.4-1.2-0.5-1.7-0.1C308.1,121.5,297.2,120.8,291.2,113.3z"/>
		</g>
	</g>
</g>
</svg>
