<?xml version="1.0" encoding="utf-8"?>
<!-- Generator: Adobe Illustrator 27.7.0, SVG Export Plug-In . SVG Version: 6.00 Build 0)  -->
<svg version="1.1" id="图层_1" xmlns="http://www.w3.org/2000/svg" xmlns:xlink="http://www.w3.org/1999/xlink" x="0px" y="0px"
	 viewBox="0 0 351.1 60" style="enable-background:new 0 0 351.1 60;" xml:space="preserve">
<style type="text/css">
	.st0{fill:#38D1C4;}
	.st1{fill:#FFFFFF;}
</style>
<g>
	<path class="st0" d="M0.1,55.1V4.7C0.1,2.1,2.2,0,4.7,0h0c2.6,0,4.7,2.1,4.7,4.7v50.5c0,2.6-2.1,4.7-4.7,4.7h0
		C2.2,59.8,0.1,57.7,0.1,55.1z"/>
	<path class="st1" d="M58.6,24.4C56,10.9,44.3,0.7,30.2,0.4C13.6,0.1,0.1,13.7,0.1,30.3v24.8c0,2.6,2.1,4.7,4.7,4.7s4.7-2.1,4.7-4.7
		V30.3C9.4,18.9,18.6,9.5,30,9.7c9.7,0.2,17.7,7.2,19.4,16.4c0.4,2.2,2.3,3.8,4.6,3.8h0C57,29.9,59.1,27.4,58.6,24.4z"/>
	<g>
		<path class="st1" d="M89.7,15.9l-7,12.6l-6.9-12.6c-0.2-0.5-0.7-0.7-1.2-0.7H70c-1.1,0-1.8,1.2-1.2,2.1L79.1,35v10.5
			c0,0.8,0.6,1.4,1.4,1.4h4.4c0.8,0,1.4-0.6,1.4-1.4V35.1l10.3-17.8c0.5-0.9-0.1-2.1-1.2-2.1H91C90.5,15.1,90,15.4,89.7,15.9z"/>
		<path class="st1" d="M105.2,16.1L95,45c-0.3,0.9,0.4,1.9,1.3,1.9h4.4c0.6,0,1.2-0.4,1.3-1l1.5-4.5H116l1.5,4.5
			c0.2,0.6,0.7,1,1.3,1h4.7c1,0,1.7-1,1.3-1.9l-10.2-29c-0.2-0.6-0.7-0.9-1.3-0.9h-6.8C106,15.1,105.4,15.5,105.2,16.1z M105.6,35.1
			l4.1-12.4l4.1,12.4H105.6z"/>
		<path class="st1" d="M150.8,35.3l-12.4-19.5c-0.3-0.4-0.7-0.7-1.2-0.7h-5.6c-0.8,0-1.4,0.6-1.4,1.4v29c0,0.8,0.6,1.4,1.4,1.4h4.1
			c0.8,0,1.4-0.6,1.4-1.4V26.8l12.4,19.5c0.3,0.4,0.7,0.7,1.2,0.7h5.6c0.8,0,1.4-0.6,1.4-1.4v-29c0-0.8-0.6-1.4-1.4-1.4h-4.1
			c-0.8,0-1.4,0.6-1.4,1.4V35.3z"/>
		<path class="st1" d="M181.3,35.4h7c-0.6,1.7-1.6,3.1-3,4.1s-3.1,1.5-5.2,1.5c-2.8,0-5.1-0.9-6.9-2.8s-2.7-4.2-2.7-6.9
			c0-2.9,0.9-5.3,2.8-7.2c1.9-1.9,4.2-2.8,7-2.8c2.7,0,5.1,1.1,7.2,3.3c0.5,0.5,1.4,0.6,1.9,0.1l3.2-2.7c0.6-0.5,0.7-1.4,0.2-2
			c-3-3.6-7.2-5.4-12.6-5.4c-5,0-9.2,1.6-12.3,4.8c-3.2,3.2-4.8,7.1-4.8,11.7c0,4.7,1.6,8.6,4.8,11.8c3.2,3.2,7.3,4.8,12.3,4.8
			c4.7,0,8.6-1.6,11.6-4.7c3-3.1,4.5-7.1,4.5-11.9v-1.9h-15.1c-0.8,0-1.4,0.6-1.4,1.4V34C179.9,34.7,180.5,35.4,181.3,35.4z"/>
		<path class="st1" d="M223.9,32.3c1.6-1.9,2.3-4.1,2.3-6.6c0-3.2-1-5.7-3-7.7c-2-1.9-4.6-2.9-8-2.9h-13.6v30.4
			c0,0.8,0.6,1.4,1.4,1.4h4.4c0.8,0,1.4-0.6,1.4-1.4v-9.4l9,10.3c0.3,0.3,0.7,0.5,1.1,0.5h5.5c1.2,0,1.9-1.5,1-2.4l-7.9-8.7
			C220.3,35.4,222.4,34.2,223.9,32.3z M209,30.2v-8.5h5.3c1.5,0,2.7,0.4,3.6,1.2c0.8,0.8,1.2,1.8,1.2,3.1c0,1.2-0.4,2.3-1.3,3
			s-2.1,1.2-3.7,1.2H209z"/>
		<path class="st1" d="M232.5,46.9h3.8c0.8,0,1.4-0.6,1.4-1.4v-3.9c0-0.8-0.6-1.4-1.4-1.4h-3.8c-0.8,0-1.4,0.6-1.4,1.4v3.9
			C231.1,46.3,231.7,46.9,232.5,46.9z"/>
		<path class="st1" d="M257.8,40.8c-2.8,0-5.1-0.9-6.9-2.8c-1.8-1.9-2.8-4.2-2.8-7.1c0-2.8,0.9-5.1,2.7-7c1.8-1.9,4.1-2.8,6.8-2.8
			c3.3,0,5.9,1.4,7.9,4.1c0.5,0.6,1.3,0.7,1.9,0.3l3.4-2.4c0.6-0.4,0.8-1.3,0.4-2c-3-4.5-7.5-6.7-13.5-6.7c-4.8,0-8.8,1.6-12.1,4.8
			c-3.2,3.2-4.9,7.1-4.9,11.7c0,4.7,1.6,8.6,4.9,11.8c3.3,3.2,7.3,4.8,12.2,4.8c5.7,0,10.2-2.3,13.4-6.8c0.5-0.6,0.3-1.6-0.3-2
			l-3.3-2.3c-0.6-0.4-1.5-0.3-2,0.3C263.7,39.5,261.1,40.8,257.8,40.8z"/>
		<path class="st1" d="M291.9,14.5c-4.7,0-8.6,1.6-11.9,4.8c-3.3,3.2-4.9,7.1-4.9,11.8c0,4.7,1.6,8.6,4.9,11.8
			c3.3,3.2,7.3,4.8,11.9,4.8c4.8,0,8.8-1.6,12-4.7c3.2-3.2,4.9-7.1,4.9-11.8c0-4.7-1.6-8.6-4.9-11.8
			C300.7,16.1,296.7,14.5,291.9,14.5z M298.7,38.1c-1.8,1.9-4.1,2.8-6.8,2.8c-2.7,0-5-0.9-6.8-2.8c-1.8-1.9-2.7-4.2-2.7-7
			c0-2.8,0.9-5.1,2.7-7c1.8-1.9,4.1-2.9,6.8-2.9c2.7,0,5,1,6.8,2.9c1.8,1.9,2.7,4.2,2.7,7C301.4,33.8,300.5,36.2,298.7,38.1z"/>
		<path class="st1" d="M341.1,16l-9,20.2l-9-20.2c-0.2-0.5-0.7-0.8-1.3-0.8h-6.3c-0.8,0-1.4,0.6-1.4,1.4v29c0,0.8,0.6,1.4,1.4,1.4
			h4.1c0.8,0,1.4-0.6,1.4-1.4V27.9l8.2,18.1c0.2,0.5,0.7,0.8,1.3,0.8h2.9c0.6,0,1.1-0.3,1.3-0.8l8.3-18.2v17.7
			c0,0.8,0.6,1.4,1.4,1.4h4.2c0.8,0,1.4-0.6,1.4-1.4v-29c0-0.8-0.6-1.4-1.4-1.4h-6.3C341.9,15.1,341.4,15.5,341.1,16z"/>
	</g>
</g>
</svg>
